<?xml version="1.0" standalone="no"?>
<!DOCTYPE svg PUBLIC "-//W3C//DTD SVG 20010904//EN"
 "http://www.w3.org/TR/2001/REC-SVG-20010904/DTD/svg10.dtd">
<svg version="1.0" xmlns="http://www.w3.org/2000/svg"
 width="512.000000pt" height="512.000000pt" viewBox="0 0 512.000000 512.000000"
 preserveAspectRatio="xMidYMid meet">
<metadata>
Created by potrace 1.16, written by Peter Selinger 2001-2019
</metadata>
<g transform="translate(0.000000,512.000000) scale(0.100000,-0.100000)"
fill="#f50b75" stroke="none">
<path d="M2236 5104 c-434 -56 -877 -238 -1233 -506 -121 -91 -311 -273 -415
-398 -303 -362 -514 -853 -573 -1330 -20 -161 -20 -459 0 -620 55 -444 234
-885 507 -1247 91 -121 273 -311 398 -415 362 -303 853 -514 1330 -573 161
-20 459 -20 620 0 444 55 885 234 1247 507 121 91 311 273 415 398 246 294
448 709 532 1090 76 345 76 755 0 1100 -84 381 -286 796 -532 1090 -104 125
-296 309 -416 399 -362 272 -803 451 -1246 506 -154 19 -482 18 -634 -1z m611
-309 c670 -88 1263 -470 1628 -1050 160 -254 279 -589 320 -898 20 -153 19
-421 -1 -577 -86 -666 -470 -1260 -1049 -1625 -254 -160 -589 -279 -898 -320
-153 -20 -421 -19 -577 1 -666 86 -1260 470 -1625 1049 -160 254 -279 589
-320 898 -20 153 -19 421 1 577 86 666 470 1260 1049 1625 249 157 587 279
885 319 145 19 441 20 587 1z"/>
<path d="M1825 4381 c-271 -118 -440 -229 -628 -410 -174 -168 -298 -340 -401
-556 -67 -139 -111 -244 -105 -249 3 -2 1238 -514 1284 -532 6 -2 10 -36 10
-74 l0 -69 -645 -267 c-355 -147 -647 -269 -649 -271 -6 -4 30 -92 90 -220 97
-208 209 -372 368 -536 168 -174 340 -298 556 -401 139 -67 244 -111 249 -105
2 3 514 1238 532 1284 2 6 36 10 74 10 l69 0 267 -645 c147 -355 269 -647 271
-649 4 -6 92 30 220 90 208 97 372 209 536 368 174 168 298 340 401 556 67
139 111 244 105 249 -3 2 -1238 514 -1284 532 -5 2 -10 36 -10 74 l0 69 645
267 c355 147 647 269 649 271 6 4 -30 92 -90 220 -97 208 -209 372 -368 536
-168 174 -340 298 -556 401 -139 67 -244 111 -249 105 -2 -3 -514 -1238 -532
-1284 -2 -5 -36 -10 -74 -10 l-69 0 -268 647 c-147 356 -272 648 -278 648 -5
0 -59 -22 -120 -49z m8 -485 c1 -13 -18 -30 -65 -60 -192 -118 -370 -297 -488
-489 -43 -70 -46 -71 -128 -35 l-53 24 56 89 c145 232 329 415 548 547 l81 49
24 -53 c13 -29 24 -61 25 -72z m1662 25 c206 -145 386 -339 494 -532 l31 -55
-67 -28 c-65 -27 -68 -27 -81 -9 -7 10 -35 52 -62 94 -103 158 -261 316 -419
419 -42 27 -84 55 -94 62 -18 13 -18 16 8 81 l27 67 57 -32 c31 -18 79 -48
106 -67z m-1506 -389 c13 -31 25 -62 28 -68 2 -6 -26 -34 -64 -61 -86 -63
-173 -149 -235 -235 -27 -38 -51 -68 -53 -68 -4 0 -128 52 -134 56 -10 7 114
169 184 239 66 67 225 193 245 195 3 0 16 -26 29 -58z m1249 6 c99 -68 232
-202 301 -301 29 -43 51 -79 50 -81 -6 -4 -130 -56 -134 -56 -2 0 -26 30 -53
68 -62 86 -149 172 -235 235 -38 27 -66 55 -64 61 30 73 53 126 55 126 2 0 38
-24 80 -52z m-1063 -455 l26 -66 -49 -49 -49 -49 -66 26 c-37 15 -67 32 -67
38 0 14 153 167 167 167 6 0 23 -30 38 -67z m897 -11 c43 -43 78 -83 78 -89 0
-6 -30 -23 -67 -38 l-66 -26 -49 49 -49 49 26 66 c15 37 32 67 38 67 6 0 46
-35 89 -78z m-401 -274 c128 -54 187 -212 130 -344 -73 -167 -296 -210 -428
-82 -122 118 -90 342 59 419 82 42 152 44 239 7z m-518 -646 l48 -49 -26 -66
c-15 -37 -32 -67 -38 -67 -14 0 -167 153 -167 167 0 9 108 61 130 63 3 0 27
-22 53 -48z m932 22 c36 -14 65 -31 65 -37 0 -14 -153 -167 -167 -167 -6 0
-23 30 -38 67 l-26 66 48 49 c26 26 48 48 50 48 2 0 32 -12 68 -26z m-1367
-221 c27 -38 75 -95 108 -127 32 -33 89 -81 127 -108 37 -27 67 -51 67 -53 0
-4 -52 -128 -56 -134 -8 -10 -171 116 -244 189 -73 73 -199 236 -189 244 7 5
124 55 131 55 3 1 29 -29 56 -66z m1804 40 c35 -15 65 -28 67 -29 10 -8 -116
-171 -189 -244 -73 -73 -236 -199 -244 -189 -4 6 -56 130 -56 134 0 2 30 26
68 53 85 62 172 149 234 235 27 37 51 67 53 67 2 0 32 -12 67 -27z m-2238
-226 c59 -95 157 -216 238 -293 79 -74 213 -176 269 -205 21 -10 40 -23 44
-28 3 -5 -7 -39 -21 -75 l-27 -66 -56 32 c-236 135 -472 370 -600 599 l-31 55
63 27 c34 14 66 25 71 23 5 -1 28 -32 50 -69z m2687 39 l50 -22 -56 -89 c-86
-136 -158 -226 -265 -328 -99 -95 -213 -181 -311 -236 l-55 -31 -27 66 c-15
36 -25 70 -22 75 4 5 23 18 44 28 167 86 430 352 533 541 20 35 22 35 109 -4z"/>
</g>
</svg>
